<?xml version="1.0" standalone="no"?>
<!DOCTYPE svg PUBLIC "-//W3C//DTD SVG 20010904//EN"
 "http://www.w3.org/TR/2001/REC-SVG-20010904/DTD/svg10.dtd">
<svg version="1.0" xmlns="http://www.w3.org/2000/svg"
 width="192.000000pt" height="192.000000pt" viewBox="0 0 192.000000 192.000000"
 preserveAspectRatio="xMidYMid meet">

<g transform="translate(0.000000,192.000000) scale(0.100000,-0.100000)"
fill="#000000" stroke="none">
<path d="M383 1906 c-181 -44 -334 -202 -372 -384 -15 -73 -15 -1051 0 -1124
19 -92 67 -177 138 -249 72 -71 157 -119 249 -138 73 -15 1051 -15 1124 0 187
39 348 200 387 387 15 73 15 1051 0 1124 -39 187 -200 348 -387 387 -78 16
-1070 13 -1139 -3z m407 -441 l-205 -205 -76 0 -76 0 -26 -58 c-13 -32 -30
-83 -37 -114 -11 -47 -22 -65 -66 -109 l-54 -53 0 65 c0 134 62 299 146 389
24 26 42 50 39 53 -3 4 -2 5 2 2 11 -8 53 37 46 49 -3 6 -3 8 2 4 4 -4 29 12
55 36 91 85 246 142 395 145 l60 1 -205 -205z m520 108 c100 -55 225 -187 278
-293 58 -117 76 -193 76 -320 1 -124 -13 -186 -64 -297 -115 -247 -334 -396
-606 -410 -228 -13 -448 86 -590 265 -41 52 -124 205 -124 228 0 6 8 19 18 30
9 10 27 32 39 47 l22 28 11 -43 c7 -24 23 -69 38 -102 25 -58 26 -58 61 -52
20 3 59 6 87 6 l52 0 -19 60 c-10 34 -22 89 -26 123 l-8 62 -70 6 c-38 3 -62
6 -52 7 10 1 15 7 12 12 -3 6 -2 10 3 10 5 0 25 16 45 35 20 19 43 35 52 35
13 0 19 12 16 33 0 4 4 7 9 7 6 0 10 5 10 11 0 14 47 59 61 59 5 0 9 6 9 13 0
8 9 22 20 32 11 10 20 16 20 14 0 -2 -7 -29 -15 -59 -8 -30 -15 -67 -15 -82
l0 -28 125 0 125 0 0 125 0 125 -77 0 -78 0 33 17 c18 8 30 18 28 21 -3 2 5
13 17 24 12 11 15 16 7 12 -9 -4 -12 -3 -7 2 5 5 23 14 40 20 21 7 33 18 35
32 2 12 8 22 13 22 5 0 9 8 9 18 0 14 2 15 10 2 9 -13 10 -13 11 0 1 8 1 19 0
24 -1 5 5 6 14 3 8 -4 15 -2 15 2 0 5 -6 12 -12 14 -7 3 -2 6 11 6 16 1 21 5
18 15 -4 11 -1 13 10 9 13 -5 15 -2 10 11 -4 9 -3 15 2 12 5 -3 16 6 25 19 9
14 21 23 27 20 5 -4 8 -1 7 7 -2 7 3 12 10 11 6 -2 12 2 12 7 0 6 7 10 16 10
10 0 14 5 10 16 -3 8 -2 13 2 10 4 -2 14 -1 21 4 18 10 77 -10 161 -57z"/>
<path d="M745 1522 c-62 -26 -146 -77 -190 -116 l-40 -35 72 -1 72 0 42 58
c23 31 53 69 67 85 30 31 30 31 -23 9z"/>
<path d="M1151 1504 c20 -22 50 -60 68 -86 17 -26 36 -50 41 -53 6 -4 41 -3
78 1 l67 7 -50 44 c-47 41 -159 103 -215 118 -23 7 -23 5 11 -31z"/>
<path d="M1010 1424 l0 -67 46 7 c26 3 53 6 61 6 17 0 -47 81 -83 104 l-24 16
0 -66z"/>
<path d="M1010 1135 l0 -125 126 0 126 0 -6 48 c-8 51 -19 92 -43 160 l-16 42
-93 0 -94 0 0 -125z"/>
<path d="M1314 1238 c26 -91 46 -176 46 -200 l0 -28 100 0 100 0 0 28 c0 37
-17 96 -47 165 l-26 57 -90 0 c-88 0 -89 0 -83 -22z"/>
<path d="M664 854 c7 -59 41 -170 58 -192 8 -9 36 -12 97 -10 l86 3 3 128 3
127 -127 0 -127 0 7 -56z"/>
<path d="M1010 780 l0 -130 91 0 90 0 20 45 c19 44 48 161 49 198 0 15 -13 17
-125 17 l-125 0 0 -130z"/>
<path d="M1356 849 c-4 -34 -16 -89 -26 -122 -11 -34 -18 -63 -16 -64 2 -2 39
-6 83 -10 79 -6 81 -5 98 20 25 38 65 164 65 203 l0 34 -99 0 -98 0 -7 -61z"/>
<path d="M520 541 c0 -27 152 -125 242 -157 l39 -14 -50 61 c-28 33 -58 74
-68 90 -17 28 -20 29 -90 29 -40 0 -73 -4 -73 -9z"/>
<path d="M790 547 c0 -10 50 -68 83 -96 l37 -33 0 66 0 66 -60 0 c-33 0 -60
-1 -60 -3z"/>
<path d="M1010 483 l0 -67 31 30 c17 16 44 46 61 67 l30 37 -61 0 -61 0 0 -67z"/>
<path d="M1225 508 c-15 -24 -46 -65 -68 -91 l-40 -48 53 20 c72 27 153 78
197 123 l37 38 -76 0 -75 0 -28 -42z"/>
</g>
</svg>
